<?xml version="1.0" encoding="utf-8"?>
<!-- Generator: Adobe Illustrator 20.0.0, SVG Export Plug-In . SVG Version: 6.00 Build 0)  -->
<svg version="1.1" id="Layer_1" xmlns="http://www.w3.org/2000/svg" xmlns:xlink="http://www.w3.org/1999/xlink" x="0px" y="0px"
	 viewBox="0 0 400 800" style="enable-background:new 0 0 400 800;" xml:space="preserve">
<style type="text/css">
	.st0{fill:#010101;}
	.st1{fill:none;stroke:#FFFFFF;stroke-width:3;stroke-miterlimit:10;}
	.st2{fill:#FFFFFF;}
	.st3{fill:#FFFFFF;stroke:#FFFFFF;stroke-width:3;stroke-miterlimit:10;}
</style>
<g>
	<path class="st0" d="M465.5,56.6L465.5,56.6L465.5,56.6z"/>
	<path class="st0" d="M625.4,163.6c0,24.6-19.9,44.5-44.5,44.5s-44.5-19.9-44.5-44.5c0-2.9,0.3-5.8,0.8-8.6h-29.9v59.2
		c0,12.7,10.3,23,23,23h101.2c12.7,0,23-10.3,23-23V155h-29.9C625.1,157.8,625.4,160.7,625.4,163.6L625.4,163.6z M631.4,90H530.2
		c-12.7,0-23,10.3-23,23v24.9h37.3c8.1-11.4,21.3-18.8,36.3-18.8s28.3,7.4,36.3,18.8h37.3V113C654.4,100.3,644.1,90,631.4,90
		L631.4,90z M642.7,118.4c0,2.3-1.9,4.1-4.1,4.1h-12.3c-2.3,0-4.1-1.9-4.1-4.1V106c0-2.3,1.9-4.1,4.1-4.1h12.3
		c2.3,0,4.1,1.9,4.1,4.1V118.4z M608.2,163.6c0-15.1-12.3-27.4-27.4-27.4s-27.4,12.2-27.4,27.4c0,15.1,12.3,27.4,27.4,27.4
		S608.2,178.7,608.2,163.6L608.2,163.6z"/>
</g>
<g>
	<path class="st1" d="M571.9,523.7L571.9,523.7L571.9,523.7z"/>
	<path class="st1" d="M696,603.3c0,24.6-19.9,44.5-44.5,44.5S607,627.9,607,603.3c0-2.9,0.3-5.8,0.8-8.6h-29.9v59.2
		c0,12.7,10.3,23,23,23h101.2c12.7,0,23-10.3,23-23v-59.2h-29.9C695.7,597.5,696,600.4,696,603.3L696,603.3z M702.1,529.7H600.9
		c-12.7,0-23,10.3-23,23v24.9h37.3c8.1-11.4,21.3-18.8,36.3-18.8s28.3,7.4,36.3,18.8h37.3v-24.9C725.1,540,714.8,529.7,702.1,529.7
		L702.1,529.7z M713.4,558.1c0,2.3-1.9,4.1-4.1,4.1H697c-2.3,0-4.1-1.9-4.1-4.1v-12.3c0-2.3,1.9-4.1,4.1-4.1h12.3
		c2.3,0,4.1,1.9,4.1,4.1V558.1z M678.9,603.3c0-15.1-12.3-27.4-27.4-27.4s-27.4,12.2-27.4,27.4c0,15.1,12.3,27.4,27.4,27.4
		S678.9,618.5,678.9,603.3L678.9,603.3z"/>
</g>
<g>
	<path class="st0" d="M-85.8,260.7c-5.3,7.7-11.6,14.3-19.1,19.7c0.1,1.1,0.1,2.7,0.1,4.9c0,10.2-1.5,20.4-4.5,30.6
		s-7.5,19.9-13.6,29.3c-6.1,9.3-13.3,17.6-21.8,24.8c-8.4,7.2-18.5,12.9-30.4,17.2c-11.9,4.3-24.6,6.4-38.1,6.4
		c-21.3,0-40.8-5.7-58.5-17.1c2.7,0.3,5.8,0.5,9.2,0.5c17.7,0,33.5-5.4,47.3-16.3c-8.2-0.2-15.6-2.7-22.2-7.6
		c-6.5-4.9-11-11.2-13.4-18.8c2.6,0.4,5,0.6,7.2,0.6c3.4,0,6.7-0.4,10-1.3c-8.8-1.8-16.1-6.2-21.9-13.1c-5.8-7-8.7-15-8.7-24.3v-0.5
		c5.3,3,11.1,4.6,17.2,4.8c-5.2-3.5-9.3-8-12.4-13.6s-4.6-11.6-4.6-18.1c0-6.9,1.7-13.3,5.2-19.2c9.5,11.7,21.1,21.1,34.7,28.1
		c13.6,7,28.2,10.9,43.8,11.7c-0.6-3-0.9-5.9-0.9-8.7c0-10.5,3.7-19.5,11.2-26.9c7.4-7.4,16.4-11.2,26.9-11.2c11,0,20.3,4,27.8,12
		c8.6-1.6,16.6-4.7,24.2-9.2c-2.9,9-8.5,16-16.7,21C-100.4,265.8-93.1,263.8-85.8,260.7L-85.8,260.7z"/>
</g>
<g>
	<path class="st1" d="M-48.4,542.8c-5.3,7.7-11.6,14.3-19.1,19.7c0.1,1.1,0.1,2.7,0.1,4.9c0,10.2-1.5,20.4-4.5,30.6
		c-3,10.2-7.5,19.9-13.6,29.3c-6.1,9.3-13.3,17.6-21.8,24.8c-8.4,7.2-18.5,12.9-30.4,17.2s-24.6,6.4-38.1,6.4
		c-21.3,0-40.8-5.7-58.5-17.1c2.7,0.3,5.8,0.5,9.2,0.5c17.7,0,33.5-5.4,47.3-16.3c-8.2-0.2-15.6-2.7-22.2-7.6
		c-6.5-4.9-11-11.2-13.4-18.8c2.6,0.4,5,0.6,7.2,0.6c3.4,0,6.7-0.4,10-1.3c-8.8-1.8-16.1-6.2-21.9-13.1c-5.8-7-8.7-15-8.7-24.3v-0.5
		c5.3,3,11.1,4.6,17.2,4.8c-5.2-3.5-9.3-8-12.4-13.6c-3.1-5.6-4.6-11.6-4.6-18.1c0-6.9,1.7-13.3,5.2-19.2
		c9.5,11.7,21.1,21.1,34.7,28.1c13.6,7,28.2,10.9,43.8,11.7c-0.6-3-0.9-5.9-0.9-8.7c0-10.5,3.7-19.5,11.2-26.9
		c7.4-7.4,16.4-11.2,26.9-11.2c11,0,20.3,4,27.8,12c8.6-1.6,16.6-4.7,24.2-9.2c-2.9,9-8.5,16-16.7,21
		C-63.1,547.9-55.8,545.9-48.4,542.8L-48.4,542.8z"/>
</g>
<g>
	<g>
		<g>
			<path class="st2" d="M236,179.4h-26.9v-13.1c0,0-1.5-12.5,7.2-12.5c9.8,0,17.7,0,17.7,0V127h-30.1c0,0-25.2-0.1-25.2,25.2
				c0,5.4,0,15.3-0.1,27.2h-17.3V201h17.3c-0.1,34.4-0.2,72.7-0.2,72.7h30.8V201h20.3L236,179.4z"/>
		</g>
	</g>
</g>
<g>
	<g>
		<g>
			<path class="st3" d="M236,579.4h-26.9v-13.1c0,0-1.5-12.5,7.2-12.5c9.8,0,17.7,0,17.7,0V527h-30.1c0,0-25.2-0.1-25.2,25.2
				c0,5.4,0,15.3-0.1,27.2h-17.3V601h17.3c-0.1,34.4-0.2,72.7-0.2,72.7h30.8V601h20.3L236,579.4z"/>
		</g>
	</g>
</g>
</svg>
