<?xml version="1.0" encoding="utf-8"?>
<!-- Generator: Adobe Illustrator 20.0.0, SVG Export Plug-In . SVG Version: 6.00 Build 0)  -->
<svg version="1.1" id="Layer_1" xmlns="http://www.w3.org/2000/svg" xmlns:xlink="http://www.w3.org/1999/xlink" x="0px" y="0px"
	 viewBox="0 0 400 800" style="enable-background:new 0 0 400 800;" xml:space="preserve">
<style type="text/css">
	.st0{fill:#FFFFFF;}
	.st1{fill:#FFFFFF;stroke:#FFFFFF;stroke-width:3;stroke-miterlimit:10;}
</style>
<g>
	<path class="st0" d="M84.1,93.4L84.1,93.4L84.1,93.4z"/>
	<path class="st0" d="M244,200.4c0,24.6-19.9,44.5-44.5,44.5S155,225,155,200.4c0-2.9,0.3-5.8,0.8-8.6h-29.9V251
		c0,12.7,10.3,23,23,23h101.2c12.7,0,23-10.3,23-23v-59.2h-29.9C243.7,194.6,244,197.5,244,200.4L244,200.4z M250.1,126.8H148.9
		c-12.7,0-23,10.3-23,23v24.9h37.3c8.1-11.4,21.3-18.8,36.3-18.8s28.3,7.4,36.3,18.8h37.3v-24.9
		C273.1,137.1,262.8,126.8,250.1,126.8L250.1,126.8z M261.4,155.2c0,2.3-1.9,4.1-4.1,4.1H245c-2.3,0-4.1-1.9-4.1-4.1v-12.3
		c0-2.3,1.9-4.1,4.1-4.1h12.3c2.3,0,4.1,1.9,4.1,4.1V155.2z M226.9,200.4c0-15.1-12.3-27.4-27.4-27.4s-27.4,12.2-27.4,27.4
		s12.3,27.4,27.4,27.4S226.9,215.5,226.9,200.4L226.9,200.4z"/>
</g>
<g>
	<path class="st1" d="M121.9,523.7L121.9,523.7L121.9,523.7z"/>
	<path class="st1" d="M246,603.3c0,24.6-19.9,44.5-44.5,44.5S157,627.9,157,603.3c0-2.9,0.3-5.8,0.8-8.6h-29.9v59.2
		c0,12.7,10.3,23,23,23h101.2c12.7,0,23-10.3,23-23v-59.2h-29.9C245.7,597.5,246,600.4,246,603.3L246,603.3z M252.1,529.7H150.9
		c-12.7,0-23,10.3-23,23v24.9h37.3c8.1-11.4,21.3-18.8,36.3-18.8s28.3,7.4,36.3,18.8h37.3v-24.9C275.1,540,264.8,529.7,252.1,529.7
		L252.1,529.7z M263.4,558.1c0,2.3-1.9,4.1-4.1,4.1H247c-2.3,0-4.1-1.9-4.1-4.1v-12.3c0-2.3,1.9-4.1,4.1-4.1h12.3
		c2.3,0,4.1,1.9,4.1,4.1V558.1z M228.9,603.3c0-15.1-12.3-27.4-27.4-27.4s-27.4,12.2-27.4,27.4c0,15.1,12.3,27.4,27.4,27.4
		S228.9,618.5,228.9,603.3L228.9,603.3z"/>
</g>
</svg>
